<svg width="20" height="20" viewBox="0 0 20 20" fill="none" xmlns="http://www.w3.org/2000/svg">
<path d="M5.8 0H14.2C17.4 0 20 2.49271 20 5.56067V13.614C20 15.0888 19.3889 16.5032 18.3012 17.546C17.2135 18.5889 15.7383 19.1747 14.2 19.1747H5.8C2.6 19.1747 0 16.682 0 13.614V5.56067C0 4.08589 0.61107 2.67151 1.69878 1.62868C2.78649 0.585854 4.26174 0 5.8 0ZM5.6 1.91747C4.64522 1.91747 3.72955 2.28111 3.05442 2.92838C2.37928 3.57565 2 4.45354 2 5.36892V13.8058C2 15.7137 3.61 17.2572 5.6 17.2572H14.4C15.3548 17.2572 16.2705 16.8936 16.9456 16.2463C17.6207 15.5991 18 14.7212 18 13.8058V5.36892C18 3.46104 16.39 1.91747 14.4 1.91747H5.6ZM15.25 3.35558C15.5815 3.35558 15.8995 3.48184 16.1339 3.70658C16.3683 3.93133 16.5 4.23615 16.5 4.55399C16.5 4.87184 16.3683 5.17666 16.1339 5.40141C15.8995 5.62615 15.5815 5.75241 15.25 5.75241C14.9185 5.75241 14.6005 5.62615 14.3661 5.40141C14.1317 5.17666 14 4.87184 14 4.55399C14 4.23615 14.1317 3.93133 14.3661 3.70658C14.6005 3.48184 14.9185 3.35558 15.25 3.35558ZM10 4.79368C11.3261 4.79368 12.5979 5.29873 13.5355 6.19771C14.4732 7.0967 15 8.316 15 9.58736C15 10.8587 14.4732 12.078 13.5355 12.977C12.5979 13.876 11.3261 14.381 10 14.381C8.67392 14.381 7.40215 13.876 6.46447 12.977C5.52678 12.078 5 10.8587 5 9.58736C5 8.316 5.52678 7.0967 6.46447 6.19771C7.40215 5.29873 8.67392 4.79368 10 4.79368ZM10 6.71115C9.20435 6.71115 8.44129 7.01418 7.87868 7.55357C7.31607 8.09297 7 8.82454 7 9.58736C7 10.3502 7.31607 11.0817 7.87868 11.6211C8.44129 12.1605 9.20435 12.4636 10 12.4636C10.7956 12.4636 11.5587 12.1605 12.1213 11.6211C12.6839 11.0817 13 10.3502 13 9.58736C13 8.82454 12.6839 8.09297 12.1213 7.55357C11.5587 7.01418 10.7956 6.71115 10 6.71115Z" fill="white"/>
</svg>
